<?xml version="1.0" encoding="utf-8"?>
<!-- Generator: Adobe Illustrator 24.0.1, SVG Export Plug-In . SVG Version: 6.00 Build 0)  -->
<svg version="1.1" id="Layer_1" xmlns="http://www.w3.org/2000/svg" xmlns:xlink="http://www.w3.org/1999/xlink" x="0px" y="0px"
	 viewBox="0 0 64.9 64.9" style="enable-background:new 0 0 64.9 64.9;" xml:space="preserve">
<style type="text/css">
	.st0{fill:#111160;}
	.st1{fill:#FCFCFC;}
</style>
<circle class="st0" cx="32.5" cy="32.5" r="32.5"/>
<g>
	<circle class="st1" cx="32.5" cy="32.5" r="28.3"/>
	<g>
		<path class="st0" d="M44.1,17.8c-1.7,0-3.5,1-5.4,2.5v15.8c1.6,1.5,3.2,2.2,5,2.2c3.8,0,6.7-3.2,6.7-10.1S47.9,17.8,44.1,17.8z"/>
		<path class="st0" d="M32.5,2.5c-16.6,0-30,13.4-30,30s13.4,30,30,30s30-13.4,30-30S49.1,2.5,32.5,2.5z M45.9,42.2
			c-2.8,0-5.2-1-7.3-3.4v3.8c0,3.7,0.1,7.7,0.2,12l4.3,0.8v2.3h-15v-2.2l3.8-0.7c0.1-4.4,0.2-8.3,0.2-12.1V26.9
			c0-3.1-0.1-4.6-0.2-6.8L31.4,20c-0.6,1.2-1.6,1.8-3.1,1.8s-2.7-0.7-3.9-2l-0.5-0.5c-2,1.7-3.4,4.1-4.3,7.1v3.9
			c0,2.4,0,5.8,0.1,8.6l4.6,0.9v2.3h-4.5h-7.1H9.3v-2.3l3.6-0.7c0.1-2.8,0.1-6.3,0.1-8.8v-3c0-3.1-0.1-4.5-0.2-6.7l-3.9-0.5V18
			l9.4-3.5l0.9,0.6l0.6,6.8c1.7-4.8,4.9-7.4,7.8-7.4c1.5,0,2.9,0.6,3.8,1.7l5.9-2.3l0.9,0.5l0.3,3.5c2.5-2.7,5.3-4,8.4-4
			c6,0,10.8,5.1,10.8,14.1C57.6,36.7,52.3,42.2,45.9,42.2z"/>
	</g>
</g>
</svg>
