<?xml version="1.0" encoding="utf-8"?>
<!-- Generator: Adobe Illustrator 24.0.1, SVG Export Plug-In . SVG Version: 6.00 Build 0)  -->
<svg version="1.1" id="Layer_1" xmlns="http://www.w3.org/2000/svg" xmlns:xlink="http://www.w3.org/1999/xlink" x="0px" y="0px"
	 viewBox="0 0 60 60" style="enable-background:new 0 0 60 60;" xml:space="preserve">
<style type="text/css">
	.st0{fill:#FCFCFC;}
	.st1{fill:#111160;}
</style>
<g>
	<circle class="st0" cx="30" cy="30" r="28.3"/>
	<g>
		<path class="st1" d="M41.6,15.3c-1.7,0-3.5,1-5.4,2.5v15.8c1.6,1.5,3.2,2.2,5,2.2c3.8,0,6.7-3.2,6.7-10.1S45.4,15.3,41.6,15.3z"/>
		<path class="st1" d="M30,0C13.4,0,0,13.4,0,30c0,16.6,13.4,30,30,30c16.6,0,30-13.4,30-30C60,13.4,46.6,0,30,0z M43.4,39.7
			c-2.8,0-5.2-1-7.3-3.4v3.8c0,3.7,0.1,7.7,0.2,12l4.3,0.8v2.3h-15V53l3.8-0.7c0.1-4.4,0.2-8.3,0.2-12.1V24.4c0-3.1-0.1-4.6-0.2-6.8
			l-0.5-0.1c-0.6,1.2-1.6,1.8-3.1,1.8c-1.5,0-2.7-0.7-3.9-2l-0.5-0.5c-2,1.7-3.4,4.1-4.3,7.1v3.9c0,2.4,0,5.8,0.1,8.6l4.6,0.9v2.3
			h-4.5h-7.1H6.8v-2.3l3.6-0.7c0.1-2.8,0.1-6.3,0.1-8.8v-3c0-3.1-0.1-4.5-0.2-6.7l-3.9-0.5v-2.1l9.4-3.5l0.9,0.6l0.6,6.8
			c1.7-4.8,4.9-7.4,7.8-7.4c1.5,0,2.9,0.6,3.8,1.7l5.9-2.3l0.9,0.5l0.3,3.5c2.5-2.7,5.3-4,8.4-4c6,0,10.8,5.1,10.8,14.1
			C55.1,34.2,49.8,39.7,43.4,39.7z"/>
	</g>
</g>
</svg>
