<?xml version="1.0" encoding="utf-8"?>
<!-- Generator: Adobe Illustrator 23.1.0, SVG Export Plug-In . SVG Version: 6.00 Build 0)  -->
<svg version="1.1" id="Layer_1" xmlns="http://www.w3.org/2000/svg" xmlns:xlink="http://www.w3.org/1999/xlink" x="0px" y="0px"
	 viewBox="0 0 40 40" style="enable-background:new 0 0 40 40;" xml:space="preserve">
<style type="text/css">
	.st0{fill:#FFFFFF;}
	.st1{fill:#1B1464;}
</style>
<circle class="st0" cx="20.2" cy="19.8" r="18"/>
<g>
	<path class="st1" d="M27.8,11.9c-1,0-2,0.5-3,1.4v8.9c0.9,0.8,1.8,1.2,2.8,1.2c2.1,0,3.8-1.8,3.8-5.7
		C31.3,13.8,29.9,11.9,27.8,11.9z"/>
	<path class="st1" d="M20,0C9,0,0,9,0,20s9,20,20,20s20-9,20-20S31,0,20,0z M15.6,13.8c-0.8,0-1.5-0.4-2.2-1.1l-0.3-0.3
		c-1.1,0.9-1.9,2.3-2.4,4v2.2c0,1.3,0,3.3,0,4.8l2.6,0.5v1.3h-2.5h-4h-2v-1.3l2-0.4c0-1.6,0-3.6,0-4.9v-1.7c0-1.7,0-2.5-0.1-3.8
		l-2.2-0.3v-1.2l5.3-2l0.5,0.3l0.3,3.8c0.9-2.7,2.7-4.1,4.4-4.1c1.1,0,2.2,0.6,2.5,1.7C17.6,12.9,16.8,13.8,15.6,13.8z M28.8,25.6
		c-1.6,0-2.9-0.6-4.1-1.9v1.9c0,1.6,0,3.3,0.1,5.1l2.5,0.5v1.3h-2.4h-3.9h-2.1v-1.3l2.2-0.4c0-1.8,0.1-3.5,0.1-5.1v-8.8
		c0-1.7,0-2.5-0.1-3.8l-2.2-0.3v-1.2l5.2-2l0.5,0.3l0.2,1.9c1.4-1.5,3-2.2,4.7-2.2c3.4,0,6.1,2.9,6.1,7.9
		C35.4,22.5,32.4,25.6,28.8,25.6z"/>
</g>
</svg>
